<?xml version="1.0" standalone="no"?>
<!DOCTYPE svg PUBLIC "-//W3C//DTD SVG 20010904//EN"
 "http://www.w3.org/TR/2001/REC-SVG-20010904/DTD/svg10.dtd">
<svg version="1.0" xmlns="http://www.w3.org/2000/svg"
 width="323.000000pt" height="156.000000pt" viewBox="0 0 323.000000 156.000000"
 preserveAspectRatio="xMidYMid meet">

<g transform="translate(0.000000,156.000000) scale(0.100000,-0.100000)"
fill="#000000" stroke="none">
<path d="M256 1329 l-26 -31 0 -327 c0 -194 4 -351 11 -387 25 -137 117 -257
246 -321 67 -33 86 -38 168 -41 71 -3 107 0 151 14 133 41 249 156 292 287 20
61 22 88 22 271 0 191 -1 205 -21 230 -25 32 -75 35 -110 7 -24 -19 -24 -23
-29 -233 -5 -182 -8 -218 -24 -248 -95 -178 -298 -223 -440 -99 -92 81 -90 72
-96 492 l-5 369 -28 24 c-39 34 -79 31 -111 -7z"/>
<path d="M943 1345 c-164 -36 -294 -164 -338 -330 -19 -74 -22 -414 -3 -448
27 -52 80 -62 125 -23 l28 24 5 214 c4 129 11 224 18 240 17 41 91 117 137
141 31 17 58 22 120 22 71 0 86 -3 135 -31 30 -17 70 -50 87 -73 59 -76 63
-108 63 -481 l0 -337 23 -21 c34 -32 89 -30 116 4 20 26 21 38 21 373 0 197
-5 365 -11 390 -27 117 -124 243 -228 296 -54 27 -164 55 -211 54 -14 0 -53
-7 -87 -14z"/>
<path d="M2393 1350 c-38 -15 -43 -41 -43 -218 0 -141 3 -181 20 -234 21 -68
63 -135 112 -177 42 -36 119 -81 140 -81 15 0 17 -20 20 -191 3 -187 4 -191
27 -210 31 -25 85 -25 111 1 23 23 23 22 20 233 -1 144 0 158 17 163 111 35
198 109 246 211 l32 68 0 204 0 204 -25 18 c-34 25 -76 15 -95 -22 -11 -21
-15 -67 -15 -190 0 -182 -8 -221 -57 -278 -51 -60 -109 -84 -193 -79 -84 4
-138 38 -185 112 l-30 49 -5 193 c-5 204 -8 215 -55 227 -11 3 -30 2 -42 -3z"/>
<path d="M1621 1324 c-28 -36 -27 -79 4 -109 61 -62 162 3 134 85 -13 36 -36
50 -83 50 -25 0 -40 -7 -55 -26z"/>
<path d="M2093 1326 c-75 -35 -135 -95 -169 -169 l-29 -62 -3 -413 -3 -412 25
-25 c33 -33 84 -34 114 -2 21 23 22 30 22 290 l0 267 50 0 c55 0 104 20 114
45 13 34 6 72 -17 93 -18 17 -36 22 -80 22 -66 0 -73 7 -63 74 13 82 85 156
152 156 89 0 136 79 79 135 -34 35 -119 35 -192 1z"/>
<path d="M1629 1101 l-24 -19 -3 -406 -3 -406 25 -25 c27 -26 72 -33 106 -15
36 19 40 62 40 441 0 372 -3 409 -38 435 -25 19 -76 17 -103 -5z"/>
</g>
</svg>
